<svg id="visual" viewBox="0 0 900 100" width="900" height="100" xmlns="http://www.w3.org/2000/svg" xmlns:xlink="http://www.w3.org/1999/xlink" version="1.1"><rect x="0" y="0" width="900" height="100" fill="#2C2F33"></rect><path d="M0 29L21.5 28.3C43 27.7 86 26.3 128.8 26C171.7 25.7 214.3 26.3 257.2 26C300 25.7 343 24.3 385.8 25.3C428.7 26.3 471.3 29.7 514.2 31.7C557 33.7 600 34.3 642.8 32.5C685.7 30.7 728.3 26.3 771.2 26.2C814 26 857 30 878.5 32L900 34L900 101L878.5 101C857 101 814 101 771.2 101C728.3 101 685.7 101 642.8 101C600 101 557 101 514.2 101C471.3 101 428.7 101 385.8 101C343 101 300 101 257.2 101C214.3 101 171.7 101 128.8 101C86 101 43 101 21.5 101L0 101Z" fill="#2c2f33"></path><path d="M0 33L21.5 34.7C43 36.3 86 39.7 128.8 40.8C171.7 42 214.3 41 257.2 43.2C300 45.3 343 50.7 385.8 51.2C428.7 51.7 471.3 47.3 514.2 44.3C557 41.3 600 39.7 642.8 39.7C685.7 39.7 728.3 41.3 771.2 42.8C814 44.3 857 45.7 878.5 46.3L900 47L900 101L878.5 101C857 101 814 101 771.2 101C728.3 101 685.7 101 642.8 101C600 101 557 101 514.2 101C471.3 101 428.7 101 385.8 101C343 101 300 101 257.2 101C214.3 101 171.7 101 128.8 101C86 101 43 101 21.5 101L0 101Z" fill="#323539"></path><path d="M0 45L21.5 47.8C43 50.7 86 56.3 128.8 60.2C171.7 64 214.3 66 257.2 65.5C300 65 343 62 385.8 58.7C428.7 55.3 471.3 51.7 514.2 51.3C557 51 600 54 642.8 54.2C685.7 54.3 728.3 51.7 771.2 52.3C814 53 857 57 878.5 59L900 61L900 101L878.5 101C857 101 814 101 771.2 101C728.3 101 685.7 101 642.8 101C600 101 557 101 514.2 101C471.3 101 428.7 101 385.8 101C343 101 300 101 257.2 101C214.3 101 171.7 101 128.8 101C86 101 43 101 21.5 101L0 101Z" fill="#383b40"></path><path d="M0 61L21.5 62.3C43 63.7 86 66.3 128.8 69.5C171.7 72.7 214.3 76.3 257.2 78C300 79.7 343 79.3 385.8 77.8C428.7 76.3 471.3 73.7 514.2 72.8C557 72 600 73 642.8 73.5C685.7 74 728.3 74 771.2 74.2C814 74.3 857 74.7 878.5 74.8L900 75L900 101L878.5 101C857 101 814 101 771.2 101C728.3 101 685.7 101 642.8 101C600 101 557 101 514.2 101C471.3 101 428.7 101 385.8 101C343 101 300 101 257.2 101C214.3 101 171.7 101 128.8 101C86 101 43 101 21.5 101L0 101Z" fill="#3e4147"></path><path d="M0 86L21.5 84.8C43 83.7 86 81.3 128.8 80.5C171.7 79.7 214.3 80.3 257.2 80.5C300 80.7 343 80.3 385.8 79.3C428.7 78.3 471.3 76.7 514.2 78C557 79.3 600 83.7 642.8 85.2C685.7 86.7 728.3 85.3 771.2 83.2C814 81 857 78 878.5 76.5L900 75L900 101L878.5 101C857 101 814 101 771.2 101C728.3 101 685.7 101 642.8 101C600 101 557 101 514.2 101C471.3 101 428.7 101 385.8 101C343 101 300 101 257.2 101C214.3 101 171.7 101 128.8 101C86 101 43 101 21.5 101L0 101Z" fill="#44484e"></path></svg>