<svg id="visual" viewBox="0 0 900 100" width="900" height="100" xmlns="http://www.w3.org/2000/svg" xmlns:xlink="http://www.w3.org/1999/xlink" version="1.1"><rect x="0" y="0" width="900" height="100" fill="#2C2F33"></rect><path d="M0 68L9.3 66.5C18.7 65 37.3 62 56.2 59.2C75 56.3 94 53.7 112.8 56.8C131.7 60 150.3 69 169 71.7C187.7 74.3 206.3 70.7 225 67.2C243.7 63.7 262.3 60.3 281.2 59.2C300 58 319 59 337.8 59.5C356.7 60 375.3 60 394 59.3C412.7 58.7 431.3 57.3 450 56C468.7 54.7 487.3 53.3 506.2 52C525 50.7 544 49.3 562.8 50.2C581.7 51 600.3 54 619 55C637.7 56 656.3 55 675 57.5C693.7 60 712.3 66 731.2 66.7C750 67.3 769 62.7 787.8 60.3C806.7 58 825.3 58 844 58.2C862.7 58.3 881.3 58.7 890.7 58.8L900 59L900 0L890.7 0C881.3 0 862.7 0 844 0C825.3 0 806.7 0 787.8 0C769 0 750 0 731.2 0C712.3 0 693.7 0 675 0C656.3 0 637.7 0 619 0C600.3 0 581.7 0 562.8 0C544 0 525 0 506.2 0C487.3 0 468.7 0 450 0C431.3 0 412.7 0 394 0C375.3 0 356.7 0 337.8 0C319 0 300 0 281.2 0C262.3 0 243.7 0 225 0C206.3 0 187.7 0 169 0C150.3 0 131.7 0 112.8 0C94 0 75 0 56.2 0C37.3 0 18.7 0 9.3 0L0 0Z" fill="#4a2398"></path><path d="M0 40L9.3 43.3C18.7 46.7 37.3 53.3 56.2 54.7C75 56 94 52 112.8 52.5C131.7 53 150.3 58 169 59C187.7 60 206.3 57 225 56.7C243.7 56.3 262.3 58.7 281.2 57.7C300 56.7 319 52.3 337.8 49.3C356.7 46.3 375.3 44.7 394 44.7C412.7 44.7 431.3 46.3 450 46.8C468.7 47.3 487.3 46.7 506.2 46C525 45.3 544 44.7 562.8 43.2C581.7 41.7 600.3 39.3 619 37.8C637.7 36.3 656.3 35.7 675 35.5C693.7 35.3 712.3 35.7 731.2 40C750 44.3 769 52.7 787.8 53.7C806.7 54.7 825.3 48.3 844 46C862.7 43.7 881.3 45.3 890.7 46.2L900 47L900 0L890.7 0C881.3 0 862.7 0 844 0C825.3 0 806.7 0 787.8 0C769 0 750 0 731.2 0C712.3 0 693.7 0 675 0C656.3 0 637.7 0 619 0C600.3 0 581.7 0 562.8 0C544 0 525 0 506.2 0C487.3 0 468.7 0 450 0C431.3 0 412.7 0 394 0C375.3 0 356.7 0 337.8 0C319 0 300 0 281.2 0C262.3 0 243.7 0 225 0C206.3 0 187.7 0 169 0C150.3 0 131.7 0 112.8 0C94 0 75 0 56.2 0C37.3 0 18.7 0 9.3 0L0 0Z" fill="#5626b6"></path><path d="M0 20L9.3 23.2C18.7 26.3 37.3 32.7 56.2 34.7C75 36.7 94 34.3 112.8 31.5C131.7 28.7 150.3 25.3 169 26.7C187.7 28 206.3 34 225 37.2C243.7 40.3 262.3 40.7 281.2 40.7C300 40.7 319 40.3 337.8 37C356.7 33.7 375.3 27.3 394 25.3C412.7 23.3 431.3 25.7 450 25.5C468.7 25.3 487.3 22.7 506.2 25C525 27.3 544 34.7 562.8 37C581.7 39.3 600.3 36.7 619 36C637.7 35.3 656.3 36.7 675 38.2C693.7 39.7 712.3 41.3 731.2 38.5C750 35.7 769 28.3 787.8 25C806.7 21.7 825.3 22.3 844 24.7C862.7 27 881.3 31 890.7 33L900 35L900 0L890.7 0C881.3 0 862.7 0 844 0C825.3 0 806.7 0 787.8 0C769 0 750 0 731.2 0C712.3 0 693.7 0 675 0C656.3 0 637.7 0 619 0C600.3 0 581.7 0 562.8 0C544 0 525 0 506.2 0C487.3 0 468.7 0 450 0C431.3 0 412.7 0 394 0C375.3 0 356.7 0 337.8 0C319 0 300 0 281.2 0C262.3 0 243.7 0 225 0C206.3 0 187.7 0 169 0C150.3 0 131.7 0 112.8 0C94 0 75 0 56.2 0C37.3 0 18.7 0 9.3 0L0 0Z" fill="#6229d4"></path><path d="M0 15L9.3 15.3C18.7 15.7 37.3 16.3 56.2 15.8C75 15.3 94 13.7 112.8 13C131.7 12.3 150.3 12.7 169 13C187.7 13.3 206.3 13.7 225 15.3C243.7 17 262.3 20 281.2 21.3C300 22.7 319 22.3 337.8 20.8C356.7 19.3 375.3 16.7 394 14.8C412.7 13 431.3 12 450 14.5C468.7 17 487.3 23 506.2 25C525 27 544 25 562.8 23C581.7 21 600.3 19 619 18.7C637.7 18.3 656.3 19.7 675 19C693.7 18.3 712.3 15.7 731.2 16C750 16.3 769 19.7 787.8 19.5C806.7 19.3 825.3 15.7 844 15.3C862.7 15 881.3 18 890.7 19.5L900 21L900 0L890.7 0C881.3 0 862.7 0 844 0C825.3 0 806.7 0 787.8 0C769 0 750 0 731.2 0C712.3 0 693.7 0 675 0C656.3 0 637.7 0 619 0C600.3 0 581.7 0 562.8 0C544 0 525 0 506.2 0C487.3 0 468.7 0 450 0C431.3 0 412.7 0 394 0C375.3 0 356.7 0 337.8 0C319 0 300 0 281.2 0C262.3 0 243.7 0 225 0C206.3 0 187.7 0 169 0C150.3 0 131.7 0 112.8 0C94 0 75 0 56.2 0C37.3 0 18.7 0 9.3 0L0 0Z" fill="#6f2bf4"></path></svg>