<svg id="visual" viewBox="0 0 900 100" width="900" height="100" xmlns="http://www.w3.org/2000/svg" xmlns:xlink="http://www.w3.org/1999/xlink" version="1.1"><rect x="0" y="0" width="900" height="100" fill="#2C2F33"></rect><path d="M0 81L21.5 78.7C43 76.3 86 71.7 128.8 70.5C171.7 69.3 214.3 71.7 257.2 73.3C300 75 343 76 385.8 74.8C428.7 73.7 471.3 70.3 514.2 65.8C557 61.3 600 55.7 642.8 53.2C685.7 50.7 728.3 51.3 771.2 53.8C814 56.3 857 60.7 878.5 62.8L900 65L900 0L878.5 0C857 0 814 0 771.2 0C728.3 0 685.7 0 642.8 0C600 0 557 0 514.2 0C471.3 0 428.7 0 385.8 0C343 0 300 0 257.2 0C214.3 0 171.7 0 128.8 0C86 0 43 0 21.5 0L0 0Z" fill="#2c2f33"></path><path d="M0 42L21.5 45.2C43 48.3 86 54.7 128.8 55.8C171.7 57 214.3 53 257.2 50.3C300 47.7 343 46.3 385.8 47.7C428.7 49 471.3 53 514.2 54.8C557 56.7 600 56.3 642.8 56.5C685.7 56.7 728.3 57.3 771.2 59C814 60.7 857 63.3 878.5 64.7L900 66L900 0L878.5 0C857 0 814 0 771.2 0C728.3 0 685.7 0 642.8 0C600 0 557 0 514.2 0C471.3 0 428.7 0 385.8 0C343 0 300 0 257.2 0C214.3 0 171.7 0 128.8 0C86 0 43 0 21.5 0L0 0Z" fill="#323539"></path><path d="M0 53L21.5 51.2C43 49.3 86 45.7 128.8 42.5C171.7 39.3 214.3 36.7 257.2 36.8C300 37 343 40 385.8 40.5C428.7 41 471.3 39 514.2 36.7C557 34.3 600 31.7 642.8 34C685.7 36.3 728.3 43.7 771.2 43.8C814 44 857 37 878.5 33.5L900 30L900 0L878.5 0C857 0 814 0 771.2 0C728.3 0 685.7 0 642.8 0C600 0 557 0 514.2 0C471.3 0 428.7 0 385.8 0C343 0 300 0 257.2 0C214.3 0 171.7 0 128.8 0C86 0 43 0 21.5 0L0 0Z" fill="#383b40"></path><path d="M0 29L21.5 29.2C43 29.3 86 29.7 128.8 29.3C171.7 29 214.3 28 257.2 27.8C300 27.7 343 28.3 385.8 30.2C428.7 32 471.3 35 514.2 34.7C557 34.3 600 30.7 642.8 28C685.7 25.3 728.3 23.7 771.2 22.5C814 21.3 857 20.7 878.5 20.3L900 20L900 0L878.5 0C857 0 814 0 771.2 0C728.3 0 685.7 0 642.8 0C600 0 557 0 514.2 0C471.3 0 428.7 0 385.8 0C343 0 300 0 257.2 0C214.3 0 171.7 0 128.8 0C86 0 43 0 21.5 0L0 0Z" fill="#3e4147"></path><path d="M0 11L21.5 13.2C43 15.3 86 19.7 128.8 20.3C171.7 21 214.3 18 257.2 17.8C300 17.7 343 20.3 385.8 21.7C428.7 23 471.3 23 514.2 22.5C557 22 600 21 642.8 21.2C685.7 21.3 728.3 22.7 771.2 22.5C814 22.3 857 20.7 878.5 19.8L900 19L900 0L878.5 0C857 0 814 0 771.2 0C728.3 0 685.7 0 642.8 0C600 0 557 0 514.2 0C471.3 0 428.7 0 385.8 0C343 0 300 0 257.2 0C214.3 0 171.7 0 128.8 0C86 0 43 0 21.5 0L0 0Z" fill="#44484e"></path></svg>