<svg id="visual" viewBox="0 0 900 100" width="900" height="100" xmlns="http://www.w3.org/2000/svg" xmlns:xlink="http://www.w3.org/1999/xlink" version="1.1"><rect x="0" y="0" width="900" height="100" fill="#44484E"></rect><path d="M0 28L21.5 28C43 28 86 28 128.8 31.5C171.7 35 214.3 42 257.2 47C300 52 343 55 385.8 52.8C428.7 50.7 471.3 43.3 514.2 41.5C557 39.7 600 43.3 642.8 41.3C685.7 39.3 728.3 31.7 771.2 31C814 30.3 857 36.7 878.5 39.8L900 43L900 101L878.5 101C857 101 814 101 771.2 101C728.3 101 685.7 101 642.8 101C600 101 557 101 514.2 101C471.3 101 428.7 101 385.8 101C343 101 300 101 257.2 101C214.3 101 171.7 101 128.8 101C86 101 43 101 21.5 101L0 101Z" fill="#7f55d3"></path><path d="M0 62L21.5 63.3C43 64.7 86 67.3 128.8 65.7C171.7 64 214.3 58 257.2 57.8C300 57.7 343 63.3 385.8 65.8C428.7 68.3 471.3 67.7 514.2 68.3C557 69 600 71 642.8 68.5C685.7 66 728.3 59 771.2 54.7C814 50.3 857 48.7 878.5 47.8L900 47L900 101L878.5 101C857 101 814 101 771.2 101C728.3 101 685.7 101 642.8 101C600 101 557 101 514.2 101C471.3 101 428.7 101 385.8 101C343 101 300 101 257.2 101C214.3 101 171.7 101 128.8 101C86 101 43 101 21.5 101L0 101Z" fill="#7c4cdc"></path><path d="M0 77L21.5 73.2C43 69.3 86 61.7 128.8 58.7C171.7 55.7 214.3 57.3 257.2 56.8C300 56.3 343 53.7 385.8 57.3C428.7 61 471.3 71 514.2 71C557 71 600 61 642.8 58.2C685.7 55.3 728.3 59.7 771.2 64.3C814 69 857 74 878.5 76.5L900 79L900 101L878.5 101C857 101 814 101 771.2 101C728.3 101 685.7 101 642.8 101C600 101 557 101 514.2 101C471.3 101 428.7 101 385.8 101C343 101 300 101 257.2 101C214.3 101 171.7 101 128.8 101C86 101 43 101 21.5 101L0 101Z" fill="#7843e4"></path><path d="M0 86L21.5 82.2C43 78.3 86 70.7 128.8 67C171.7 63.3 214.3 63.7 257.2 63.5C300 63.3 343 62.7 385.8 64.5C428.7 66.3 471.3 70.7 514.2 74.2C557 77.7 600 80.3 642.8 81.2C685.7 82 728.3 81 771.2 78.2C814 75.3 857 70.7 878.5 68.3L900 66L900 101L878.5 101C857 101 814 101 771.2 101C728.3 101 685.7 101 642.8 101C600 101 557 101 514.2 101C471.3 101 428.7 101 385.8 101C343 101 300 101 257.2 101C214.3 101 171.7 101 128.8 101C86 101 43 101 21.5 101L0 101Z" fill="#7438ec"></path><path d="M0 88L21.5 87.2C43 86.3 86 84.7 128.8 85.2C171.7 85.7 214.3 88.3 257.2 87.2C300 86 343 81 385.8 79C428.7 77 471.3 78 514.2 78.7C557 79.3 600 79.7 642.8 80.7C685.7 81.7 728.3 83.3 771.2 84C814 84.7 857 84.3 878.5 84.2L900 84L900 101L878.5 101C857 101 814 101 771.2 101C728.3 101 685.7 101 642.8 101C600 101 557 101 514.2 101C471.3 101 428.7 101 385.8 101C343 101 300 101 257.2 101C214.3 101 171.7 101 128.8 101C86 101 43 101 21.5 101L0 101Z" fill="#6f2bf4"></path></svg>