<svg id="visual" viewBox="0 0 900 100" width="900" height="100" xmlns="http://www.w3.org/2000/svg" xmlns:xlink="http://www.w3.org/1999/xlink" version="1.1"><rect x="0" y="0" width="900" height="100" fill="#2C2F33"></rect><path d="M0 40L21.5 44.3C43 48.7 86 57.3 128.8 58.7C171.7 60 214.3 54 257.2 50.5C300 47 343 46 385.8 45.3C428.7 44.7 471.3 44.3 514.2 41.2C557 38 600 32 642.8 34.3C685.7 36.7 728.3 47.3 771.2 48.2C814 49 857 40 878.5 35.5L900 31L900 101L878.5 101C857 101 814 101 771.2 101C728.3 101 685.7 101 642.8 101C600 101 557 101 514.2 101C471.3 101 428.7 101 385.8 101C343 101 300 101 257.2 101C214.3 101 171.7 101 128.8 101C86 101 43 101 21.5 101L0 101Z" fill="#5926bf"></path><path d="M0 35L21.5 35.2C43 35.3 86 35.7 128.8 40C171.7 44.3 214.3 52.7 257.2 53.8C300 55 343 49 385.8 44.5C428.7 40 471.3 37 514.2 37.7C557 38.3 600 42.7 642.8 47.2C685.7 51.7 728.3 56.3 771.2 54C814 51.7 857 42.3 878.5 37.7L900 33L900 101L878.5 101C857 101 814 101 771.2 101C728.3 101 685.7 101 642.8 101C600 101 557 101 514.2 101C471.3 101 428.7 101 385.8 101C343 101 300 101 257.2 101C214.3 101 171.7 101 128.8 101C86 101 43 101 21.5 101L0 101Z" fill="#5c27c6"></path><path d="M0 72L21.5 71.2C43 70.3 86 68.7 128.8 67.7C171.7 66.7 214.3 66.3 257.2 65.2C300 64 343 62 385.8 61.3C428.7 60.7 471.3 61.3 514.2 63.3C557 65.3 600 68.7 642.8 70.8C685.7 73 728.3 74 771.2 70.2C814 66.3 857 57.7 878.5 53.3L900 49L900 101L878.5 101C857 101 814 101 771.2 101C728.3 101 685.7 101 642.8 101C600 101 557 101 514.2 101C471.3 101 428.7 101 385.8 101C343 101 300 101 257.2 101C214.3 101 171.7 101 128.8 101C86 101 43 101 21.5 101L0 101Z" fill="#5f28ce"></path><path d="M0 71L21.5 69.5C43 68 86 65 128.8 65.7C171.7 66.3 214.3 70.7 257.2 69.5C300 68.3 343 61.7 385.8 62.5C428.7 63.3 471.3 71.7 514.2 75C557 78.3 600 76.7 642.8 75.3C685.7 74 728.3 73 771.2 71.8C814 70.7 857 69.3 878.5 68.7L900 68L900 101L878.5 101C857 101 814 101 771.2 101C728.3 101 685.7 101 642.8 101C600 101 557 101 514.2 101C471.3 101 428.7 101 385.8 101C343 101 300 101 257.2 101C214.3 101 171.7 101 128.8 101C86 101 43 101 21.5 101L0 101Z" fill="#6229d5"></path><path d="M0 75L21.5 73.8C43 72.7 86 70.3 128.8 69.5C171.7 68.7 214.3 69.3 257.2 69.2C300 69 343 68 385.8 68.8C428.7 69.7 471.3 72.3 514.2 73.5C557 74.7 600 74.3 642.8 71.5C685.7 68.7 728.3 63.3 771.2 61.5C814 59.7 857 61.3 878.5 62.2L900 63L900 101L878.5 101C857 101 814 101 771.2 101C728.3 101 685.7 101 642.8 101C600 101 557 101 514.2 101C471.3 101 428.7 101 385.8 101C343 101 300 101 257.2 101C214.3 101 171.7 101 128.8 101C86 101 43 101 21.5 101L0 101Z" fill="#6629dd"></path><path d="M0 71L21.5 72.7C43 74.3 86 77.7 128.8 79.2C171.7 80.7 214.3 80.3 257.2 79C300 77.7 343 75.3 385.8 74.8C428.7 74.3 471.3 75.7 514.2 74.5C557 73.3 600 69.7 642.8 70.8C685.7 72 728.3 78 771.2 78.5C814 79 857 74 878.5 71.5L900 69L900 101L878.5 101C857 101 814 101 771.2 101C728.3 101 685.7 101 642.8 101C600 101 557 101 514.2 101C471.3 101 428.7 101 385.8 101C343 101 300 101 257.2 101C214.3 101 171.7 101 128.8 101C86 101 43 101 21.5 101L0 101Z" fill="#692ae5"></path><path d="M0 79L21.5 80.8C43 82.7 86 86.3 128.8 88.2C171.7 90 214.3 90 257.2 87.3C300 84.7 343 79.3 385.8 78.7C428.7 78 471.3 82 514.2 84.3C557 86.7 600 87.3 642.8 85.5C685.7 83.7 728.3 79.3 771.2 78.2C814 77 857 79 878.5 80L900 81L900 101L878.5 101C857 101 814 101 771.2 101C728.3 101 685.7 101 642.8 101C600 101 557 101 514.2 101C471.3 101 428.7 101 385.8 101C343 101 300 101 257.2 101C214.3 101 171.7 101 128.8 101C86 101 43 101 21.5 101L0 101Z" fill="#6c2aec"></path><path d="M0 86L21.5 86.8C43 87.7 86 89.3 128.8 90.2C171.7 91 214.3 91 257.2 90C300 89 343 87 385.8 87C428.7 87 471.3 89 514.2 89C557 89 600 87 642.8 86C685.7 85 728.3 85 771.2 84.7C814 84.3 857 83.7 878.5 83.3L900 83L900 101L878.5 101C857 101 814 101 771.2 101C728.3 101 685.7 101 642.8 101C600 101 557 101 514.2 101C471.3 101 428.7 101 385.8 101C343 101 300 101 257.2 101C214.3 101 171.7 101 128.8 101C86 101 43 101 21.5 101L0 101Z" fill="#6f2bf4"></path></svg>