<svg id="visual" viewBox="0 0 900 300" width="900" height="300" xmlns="http://www.w3.org/2000/svg" xmlns:xlink="http://www.w3.org/1999/xlink" version="1.1"><rect x="0" y="0" width="900" height="300" fill="#2C2F33"></rect><path d="M0 165L9.3 161.5C18.7 158 37.3 151 56.2 144C75 137 94 130 112.8 137.5C131.7 145 150.3 167 169 173.5C187.7 180 206.3 171 225 162.5C243.7 154 262.3 146 281.2 143C300 140 319 142 337.8 143.3C356.7 144.7 375.3 145.3 394 144C412.7 142.7 431.3 139.3 450 135.8C468.7 132.3 487.3 128.7 506.2 125.7C525 122.7 544 120.3 562.8 122.7C581.7 125 600.3 132 619 134C637.7 136 656.3 133 675 138.7C693.7 144.3 712.3 158.7 731.2 160.7C750 162.7 769 152.3 787.8 147C806.7 141.7 825.3 141.3 844 141.5C862.7 141.7 881.3 142.3 890.7 142.7L900 143L900 0L890.7 0C881.3 0 862.7 0 844 0C825.3 0 806.7 0 787.8 0C769 0 750 0 731.2 0C712.3 0 693.7 0 675 0C656.3 0 637.7 0 619 0C600.3 0 581.7 0 562.8 0C544 0 525 0 506.2 0C487.3 0 468.7 0 450 0C431.3 0 412.7 0 394 0C375.3 0 356.7 0 337.8 0C319 0 300 0 281.2 0C262.3 0 243.7 0 225 0C206.3 0 187.7 0 169 0C150.3 0 131.7 0 112.8 0C94 0 75 0 56.2 0C37.3 0 18.7 0 9.3 0L0 0Z" fill="#4a2398"></path><path d="M0 98L9.3 106C18.7 114 37.3 130 56.2 133.2C75 136.3 94 126.7 112.8 127.7C131.7 128.7 150.3 140.3 169 142.8C187.7 145.3 206.3 138.7 225 138C243.7 137.3 262.3 142.7 281.2 139.8C300 137 319 126 337.8 118.7C356.7 111.3 375.3 107.7 394 108C412.7 108.3 431.3 112.7 450 113.8C468.7 115 487.3 113 506.2 111.3C525 109.7 544 108.3 562.8 104.8C581.7 101.3 600.3 95.7 619 92.2C637.7 88.7 656.3 87.3 675 87C693.7 86.7 712.3 87.3 731.2 97.5C750 107.7 769 127.3 787.8 129.5C806.7 131.7 825.3 116.3 844 110.8C862.7 105.3 881.3 109.7 890.7 111.8L900 114L900 0L890.7 0C881.3 0 862.7 0 844 0C825.3 0 806.7 0 787.8 0C769 0 750 0 731.2 0C712.3 0 693.7 0 675 0C656.3 0 637.7 0 619 0C600.3 0 581.7 0 562.8 0C544 0 525 0 506.2 0C487.3 0 468.7 0 450 0C431.3 0 412.7 0 394 0C375.3 0 356.7 0 337.8 0C319 0 300 0 281.2 0C262.3 0 243.7 0 225 0C206.3 0 187.7 0 169 0C150.3 0 131.7 0 112.8 0C94 0 75 0 56.2 0C37.3 0 18.7 0 9.3 0L0 0Z" fill="#5626b6"></path><path d="M0 50L9.3 57.7C18.7 65.3 37.3 80.7 56.2 85.3C75 90 94 84 112.8 77C131.7 70 150.3 62 169 65.2C187.7 68.3 206.3 82.7 225 90.2C243.7 97.7 262.3 98.3 281.2 98.5C300 98.7 319 98.3 337.8 90.3C356.7 82.3 375.3 66.7 394 61.8C412.7 57 431.3 63 450 62.8C468.7 62.7 487.3 56.3 506.2 61.8C525 67.3 544 84.7 562.8 90.3C581.7 96 600.3 90 619 88.5C637.7 87 656.3 90 675 93.3C693.7 96.7 712.3 100.3 731.2 93.3C750 86.3 769 68.7 787.8 60.5C806.7 52.3 825.3 53.7 844 59.2C862.7 64.7 881.3 74.3 890.7 79.2L900 84L900 0L890.7 0C881.3 0 862.7 0 844 0C825.3 0 806.7 0 787.8 0C769 0 750 0 731.2 0C712.3 0 693.7 0 675 0C656.3 0 637.7 0 619 0C600.3 0 581.7 0 562.8 0C544 0 525 0 506.2 0C487.3 0 468.7 0 450 0C431.3 0 412.7 0 394 0C375.3 0 356.7 0 337.8 0C319 0 300 0 281.2 0C262.3 0 243.7 0 225 0C206.3 0 187.7 0 169 0C150.3 0 131.7 0 112.8 0C94 0 75 0 56.2 0C37.3 0 18.7 0 9.3 0L0 0Z" fill="#6229d4"></path><path d="M0 38L9.3 38.5C18.7 39 37.3 40 56.2 38.5C75 37 94 33 112.8 31.7C131.7 30.3 150.3 31.7 169 32.8C187.7 34 206.3 35 225 39C243.7 43 262.3 50 281.2 53.2C300 56.3 319 55.7 337.8 51.8C356.7 48 375.3 41 394 36.7C412.7 32.3 431.3 30.7 450 36.8C468.7 43 487.3 57 506.2 61.8C525 66.7 544 62.3 562.8 57.7C581.7 53 600.3 48 619 47.2C637.7 46.3 656.3 49.7 675 47.8C693.7 46 712.3 39 731.2 39.5C750 40 769 48 787.8 47.8C806.7 47.7 825.3 39.3 844 38.5C862.7 37.7 881.3 44.3 890.7 47.7L900 51L900 0L890.7 0C881.3 0 862.7 0 844 0C825.3 0 806.7 0 787.8 0C769 0 750 0 731.2 0C712.3 0 693.7 0 675 0C656.3 0 637.7 0 619 0C600.3 0 581.7 0 562.8 0C544 0 525 0 506.2 0C487.3 0 468.7 0 450 0C431.3 0 412.7 0 394 0C375.3 0 356.7 0 337.8 0C319 0 300 0 281.2 0C262.3 0 243.7 0 225 0C206.3 0 187.7 0 169 0C150.3 0 131.7 0 112.8 0C94 0 75 0 56.2 0C37.3 0 18.7 0 9.3 0L0 0Z" fill="#6f2bf4"></path></svg>